<svg width="40" height="40" viewBox="0 0 40 40" fill="none" xmlns="http://www.w3.org/2000/svg">
<path d="M20 40C17.2667 40 14.6833 39.4747 12.25 38.424C9.81667 37.3733 7.69133 35.94 5.874 34.124C4.058 32.308 2.62467 30.1833 1.574 27.75C0.523336 25.3167 -0.0013308 22.7333 2.53485e-06 20C2.53485e-06 17.2333 0.525336 14.6413 1.576 12.224C2.62667 9.80667 4.06 7.69067 5.876 5.876C7.692 4.05867 9.816 2.62533 12.248 1.576C14.68 0.526667 17.264 0.00133333 20 0C22.7667 0 25.3587 0.525334 27.776 1.576C30.1933 2.62667 32.3093 4.06 34.124 5.876C35.9413 7.692 37.3747 9.80867 38.424 12.226C39.4733 14.6433 39.9987 17.2347 40 20V22.9C40 24.8667 39.3253 26.542 37.976 27.926C36.6267 29.31 34.968 30.0013 33 30C31.8 30 30.6833 29.7333 29.65 29.2C28.6167 28.6667 27.7667 27.9667 27.1 27.1C26.2 28 25.1413 28.7087 23.924 29.226C22.7067 29.7433 21.3987 30.0013 20 30C17.2333 30 14.8747 29.0247 12.924 27.074C10.9733 25.1233 9.99867 22.7653 10 20C10 17.2333 10.9753 14.8747 12.926 12.924C14.8767 10.9733 17.2347 9.99867 20 10C22.7667 10 25.1253 10.9753 27.076 12.926C29.0267 14.8767 30.0013 17.2347 30 20V22.9C30 23.8667 30.3 24.6247 30.9 25.174C31.5 25.7233 32.2 25.9987 33 26C33.8 26 34.5 25.7247 35.1 25.174C35.7 24.6233 36 23.8653 36 22.9V20C36 15.6333 34.4247 11.8747 31.274 8.724C28.1233 5.57333 24.3653 3.99867 20 4C15.6333 4 11.8747 5.57533 8.724 8.726C5.57334 11.8767 3.99867 15.6347 4 20C4 24.3667 5.57534 28.1253 8.726 31.276C11.8767 34.4267 15.6347 36.0013 20 36H30V40H20ZM20 26C21.6667 26 23.0833 25.4167 24.25 24.25C25.4167 23.0833 26 21.6667 26 20C26 18.3333 25.4167 16.9167 24.25 15.75C23.0833 14.5833 21.6667 14 20 14C18.3333 14 16.9167 14.5833 15.75 15.75C14.5833 16.9167 14 18.3333 14 20C14 21.6667 14.5833 23.0833 15.75 24.25C16.9167 25.4167 18.3333 26 20 26Z" fill="#086969"/>
</svg>
