<svg width="37" height="20" viewBox="0 0 37 20" fill="none" xmlns="http://www.w3.org/2000/svg">
<path d="M3.33333 16.2185H33.3333C34.25 16.2185 35 16.9685 35 17.8852C35 18.8019 34.25 19.5519 33.3333 19.5519H3.33333C2.41667 19.5519 1.66667 18.8019 1.66667 17.8852C1.66667 16.9685 2.41667 16.2185 3.33333 16.2185ZM2.5 8.83521C3.1 9.1852 3.86667 8.96854 4.21667 8.36854L5 7.00187L5.8 8.38521C6.15 8.98521 6.91667 9.18521 7.51667 8.85187C8.11667 8.50187 8.31667 7.75187 7.98333 7.15187L7.16667 5.75187H8.75C9.43333 5.75187 10 5.18521 10 4.50187C10 3.81854 9.43333 3.25187 8.75 3.25187H7.16667L7.95 1.8852C8.3 1.2852 8.1 0.518538 7.5 0.168538C7.20956 0.00686583 6.86742 -0.0348243 6.54666 0.0523731C6.2259 0.139571 5.95195 0.348742 5.78333 0.635205L5 2.00187L4.21667 0.635205C4.04805 0.348742 3.7741 0.139571 3.45334 0.0523731C3.13258 -0.0348243 2.79044 0.00686583 2.5 0.168538C1.9 0.518538 1.7 1.2852 2.05 1.8852L2.83333 3.25187H1.25C0.566667 3.25187 0 3.81854 0 4.50187C0 5.18521 0.566667 5.75187 1.25 5.75187H2.83333L2.03333 7.13521C1.7 7.73521 1.9 8.50187 2.5 8.83521ZM15.8333 8.83521C16.4333 9.1852 17.2 8.96854 17.55 8.36854L18.3333 7.00187L19.1333 8.38521C19.4833 8.98521 20.25 9.18521 20.85 8.85187C21.45 8.50187 21.65 7.75187 21.3167 7.15187L20.5167 5.76854H22.1C22.7833 5.76854 23.35 5.20187 23.35 4.51854C23.35 3.8352 22.7833 3.26854 22.1 3.26854H20.5L21.2833 1.90187C21.4482 1.61382 21.4934 1.27259 21.4092 0.951558C21.3251 0.630528 21.1183 0.355349 20.8333 0.185205C20.6922 0.103109 20.5362 0.0496256 20.3744 0.0278104C20.2125 0.00599525 20.048 0.0162756 19.8901 0.0580634C19.7323 0.0998511 19.5842 0.172328 19.4543 0.271355C19.3245 0.370382 19.2154 0.494019 19.1333 0.635205L18.3333 2.00187L17.55 0.635205C17.4686 0.493361 17.3598 0.369077 17.23 0.269547C17.1003 0.170017 16.952 0.0972193 16.7939 0.0553676C16.6358 0.013516 16.471 0.0034424 16.309 0.025729C16.1469 0.0480156 15.9909 0.10222 15.85 0.185205C15.25 0.535205 15.05 1.30187 15.4 1.90187L16.1833 3.26854H14.5833C14.42 3.26633 14.2578 3.2966 14.1062 3.35759C13.9547 3.41858 13.8167 3.50908 13.7004 3.62383C13.5841 3.73857 13.4918 3.87528 13.4288 4.02601C13.3658 4.17675 13.3333 4.3385 13.3333 4.50187C13.3333 5.18521 13.9 5.75187 14.5833 5.75187H16.1667L15.3667 7.13521C15.0333 7.73521 15.2333 8.50187 15.8333 8.83521ZM36.6667 4.50187C36.6667 3.81854 36.1 3.25187 35.4167 3.25187H33.8333L34.6167 1.8852C34.7815 1.59716 34.8267 1.25592 34.7426 0.934892C34.6584 0.613862 34.4516 0.338682 34.1667 0.168538C34.0255 0.0864418 33.8695 0.0329593 33.7077 0.0111442C33.5459 -0.010671 33.3813 -0.000391481 33.2235 0.0413963C33.0656 0.0831841 32.9175 0.155661 32.7877 0.254688C32.6578 0.353715 32.5487 0.477352 32.4667 0.618538L31.6667 2.00187L30.8833 0.635205C30.8019 0.493361 30.6932 0.369077 30.5634 0.269547C30.4336 0.170017 30.2854 0.0972193 30.1273 0.0553676C29.9692 0.013516 29.8043 0.0034424 29.6423 0.025729C29.4803 0.0480156 29.3243 0.10222 29.1833 0.185205C28.5833 0.535205 28.3833 1.30187 28.7333 1.90187L29.5167 3.26854H27.9333C27.7688 3.26477 27.6051 3.29385 27.4519 3.35408C27.2987 3.41431 27.159 3.50448 27.0411 3.61932C26.9232 3.73415 26.8293 3.87135 26.765 4.02289C26.7007 4.17443 26.6673 4.33726 26.6667 4.50187C26.6667 5.18521 27.2333 5.75187 27.9167 5.75187H29.5L28.7 7.13521C28.6172 7.27702 28.5636 7.43394 28.5423 7.59675C28.521 7.75956 28.5324 7.92499 28.5759 8.08333C28.6193 8.24167 28.694 8.38974 28.7954 8.51885C28.8969 8.64796 29.0231 8.75552 29.1667 8.83521C29.7667 9.1852 30.5333 8.96854 30.8833 8.36854L31.6667 7.00187L32.4667 8.38521C32.8167 8.98521 33.5833 9.18521 34.1833 8.85187C34.7833 8.50187 34.9833 7.75187 34.65 7.15187L33.85 5.76854H35.4333C36.1 5.75187 36.6667 5.18521 36.6667 4.50187Z" fill="#086969"/>
</svg>
