<svg width="142" height="202" viewBox="0 0 142 202" fill="none" xmlns="http://www.w3.org/2000/svg">
<rect x="0.071167" y="0.608452" width="141.544" height="201.057" rx="20" fill="#E6E6E6"/>
<path d="M76.3996 94.9292V90.2295C77.9277 89.5844 79.4909 89.1006 81.0893 88.7781C82.6877 88.4556 84.3658 88.2943 86.1235 88.2943C87.3274 88.2943 88.5081 88.3865 89.6657 88.5708C90.8233 88.7551 91.9578 88.9854 93.069 89.2619V93.6851C91.9578 93.2705 90.8344 92.959 89.699 92.7507C88.5637 92.5425 87.3718 92.4393 86.1235 92.4411C84.3639 92.4411 82.6738 92.6604 81.0532 93.0991C79.4325 93.5377 77.8813 94.1477 76.3996 94.9292ZM76.3996 110.134V105.434C77.9277 104.789 79.4909 104.306 81.0893 103.983C82.6877 103.66 84.3658 103.499 86.1235 103.499C87.3274 103.499 88.5081 103.591 89.6657 103.776C90.8233 103.96 91.9578 104.19 93.069 104.467V108.89C91.9578 108.475 90.8344 108.164 89.699 107.956C88.5637 107.747 87.3718 107.644 86.1235 107.646C84.3639 107.646 82.6738 107.853 81.0532 108.268C79.4325 108.683 77.8813 109.305 76.3996 110.134ZM76.3996 102.532V97.8319C77.9277 97.1869 79.4909 96.7031 81.0893 96.3806C82.6877 96.058 84.3658 95.8968 86.1235 95.8968C87.3274 95.8968 88.5081 95.9889 89.6657 96.1732C90.8233 96.3575 91.9578 96.5879 93.069 96.8644V101.288C91.9578 100.873 90.8344 100.561 89.699 100.353C88.5637 100.145 87.3718 100.042 86.1235 100.044C84.3639 100.044 82.6738 100.263 81.0532 100.702C79.4325 101.14 77.8813 101.75 76.3996 102.532ZM73.6214 114.696C75.6588 113.728 77.7072 113.002 79.7668 112.517C81.8264 112.032 83.9453 111.791 86.1235 111.793C87.7904 111.793 89.4231 111.931 91.0215 112.207C92.6199 112.484 94.2285 112.899 95.8473 113.452V86.0827C94.3193 85.4376 92.7329 84.9538 91.0882 84.6313C89.4434 84.3088 87.7885 84.1475 86.1235 84.1475C83.9472 84.1475 81.794 84.424 79.6641 84.9769C77.5341 85.5298 75.5198 86.3591 73.6214 87.465V114.696ZM70.8431 122.851C68.6206 121.1 66.2127 119.741 63.6197 118.773C61.0267 117.806 58.3411 117.322 55.5628 117.322C53.6181 117.322 51.7076 117.575 49.8313 118.082C47.9551 118.589 46.1613 119.303 44.4499 120.225C43.4775 120.731 42.5403 120.708 41.6383 120.156C40.7363 119.603 40.2844 118.796 40.2825 117.737V84.424C40.2825 83.9171 40.4103 83.4334 40.6659 82.9726C40.9215 82.5118 41.3031 82.1663 41.8106 81.9359C43.9868 80.8762 46.2215 80.0579 48.5145 79.481C50.8074 78.9041 53.1569 78.6166 55.5628 78.6185C58.2485 78.6185 60.8767 78.964 63.4475 79.6552C66.0183 80.3463 68.4835 81.383 70.8431 82.7653C73.2046 81.383 75.6708 80.3463 78.2416 79.6552C80.8124 78.964 83.4397 78.6185 86.1235 78.6185C88.5313 78.6185 90.8816 78.9069 93.1746 79.4838C95.4676 80.0606 97.7013 80.878 99.8757 81.9359C100.385 82.1663 100.768 82.5118 101.023 82.9726C101.279 83.4334 101.406 83.9171 101.404 84.424V117.737C101.404 118.796 100.953 119.603 100.051 120.156C99.1488 120.708 98.2106 120.731 97.2364 120.225C95.5232 119.303 93.7293 118.589 91.855 118.082C89.9806 117.575 88.0701 117.322 86.1235 117.322C83.3452 117.322 80.6596 117.806 78.0666 118.773C75.4735 119.741 73.0657 121.1 70.8431 122.851Z" fill="#2E2E2E" fill-opacity="0.2"/>
</svg>
